<svg width="120" height="120" viewBox="0 0 120 120" fill="none" xmlns="http://www.w3.org/2000/svg">
<path d="M37.0389 4.5672C44.3184 1.55211 52.1208 0 60 0V30C56.0602 30 52.1592 30.7759 48.5194 32.2838C44.8797 33.7913 41.5725 36.001 38.7867 38.7867C36.001 41.5725 33.7913 44.8797 32.2838 48.5194C30.7759 52.1592 30 56.0602 30 60H0C0 52.1208 1.55211 44.3184 4.5672 37.0389C7.58263 29.7593 12.0021 23.1453 17.5735 17.5735C23.1453 12.0021 29.7593 7.58263 37.0389 4.5672Z" fill="#155EEF"/>
<path d="M0 60C0 67.8792 1.55211 75.6816 4.5672 82.9611C7.58263 90.2407 12.0021 96.8547 17.5735 102.427C23.1453 107.998 29.7593 112.417 37.0389 115.433C44.3184 118.448 52.1208 120 60 120C67.8792 120 75.6816 118.448 82.9611 115.433C90.2407 112.417 96.8547 107.998 102.427 102.427C107.998 96.8547 112.417 90.2407 115.433 82.9611C118.448 75.6816 120 67.8792 120 60H90C90 63.9398 89.2241 67.8408 87.7162 71.4806C86.2087 75.1203 83.999 78.4275 81.2133 81.2133C78.4275 83.999 75.1203 86.2087 71.4806 87.7162C67.8408 89.2241 63.9398 90 60 90C56.0602 90 52.1592 89.2241 48.5194 87.7162C44.8797 86.2087 41.5725 83.999 38.7867 81.2133C36.001 78.4275 33.7913 75.1203 32.2838 71.4806C30.7759 67.8408 30 63.9398 30 60H0Z" fill="#84ADFF"/>
<path d="M60.0001 40.9092C49.4565 40.9092 40.9092 49.4565 40.9092 60.0001H79.091C79.091 49.4565 70.5437 40.9092 60.0001 40.9092Z" fill="#84ADFF"/>
<path d="M60.0001 79.0908C49.4565 79.0908 40.9092 70.5435 40.9092 59.9999H79.091C79.091 70.5435 70.5437 79.0908 60.0001 79.0908Z" fill="#155EEF"/>
</svg>
